<svg width="18" height="18" viewBox="0 0 18 18" fill="none" xmlns="http://www.w3.org/2000/svg">
<g clip-path="url(#clip0)">
<path d="M15.5753 0H2.42653C1.08697 0 0.000991821 1.08593 0.000991821 2.42554V15.5744C0.000991821 16.914 1.08692 17.9999 2.42653 17.9999H8.91143L8.92248 11.5677H7.2514C7.03423 11.5677 6.85797 11.3921 6.85713 11.1749L6.84912 9.10158C6.84828 8.88323 7.02507 8.70577 7.24343 8.70577H8.91148V6.70238C8.91148 4.37746 10.3314 3.11152 12.4054 3.11152H14.1072C14.325 3.11152 14.5015 3.28805 14.5015 3.50583V5.2541C14.5015 5.4718 14.3251 5.64828 14.1075 5.64841L13.063 5.6489C11.9352 5.6489 11.7167 6.18486 11.7167 6.97142V8.70582H14.1951C14.4313 8.70582 14.6145 8.91202 14.5867 9.14654L14.3409 11.2199C14.3174 11.4183 14.1492 11.5678 13.9494 11.5678H11.7278L11.7167 18H15.5754C16.9149 18 18.0009 16.9141 18.0009 15.5745V2.42554C18.0008 1.08593 16.9149 0 15.5753 0Z" fill="#475993"/>
</g>
<defs>
<clipPath id="clip0">
<rect width="18" height="18" fill="white"/>
</clipPath>
</defs>
</svg>
