<svg width="18" height="18" viewBox="0 0 18 18" fill="none" xmlns="http://www.w3.org/2000/svg">
<g clip-path="url(#clip0)">
<path d="M18 9.20669C18 8.5949 17.9494 7.9798 17.8414 7.37792H9.18051V10.8437H14.1402C13.9344 11.9614 13.2731 12.9502 12.3048 13.5785V15.8273H15.2637C17.0013 14.2598 18 11.9449 18 9.20669Z" fill="#4285F4"/>
<path d="M9.1805 18C11.657 18 13.7455 17.203 15.2671 15.8273L12.3081 13.5786C11.4849 14.1275 10.4221 14.4384 9.18388 14.4384C6.78838 14.4384 4.75726 12.8543 4.02849 10.7246H0.975067V13.0428C2.53383 16.0819 5.70871 18 9.1805 18Z" fill="#34A853"/>
<path d="M4.02513 10.7246C3.6405 9.60683 3.6405 8.39647 4.02513 7.2787V4.96049H0.975079C-0.327264 7.50358 -0.327264 10.4997 0.975079 13.0428L4.02513 10.7246Z" fill="#FBBC04"/>
<path d="M9.1805 3.56164C10.4896 3.5418 11.7548 4.02462 12.7029 4.9109L15.3245 2.34136C13.6645 0.813526 11.4613 -0.0264522 9.1805 3.77733e-06C5.70871 3.77733e-06 2.53383 1.91806 0.975067 4.9605L4.02511 7.27871C4.75051 5.1457 6.785 3.56164 9.1805 3.56164Z" fill="#EA4335"/>
</g>
<defs>
<clipPath id="clip0">
<rect width="18" height="18" fill="white"/>
</clipPath>
</defs>
</svg>
