<svg width="20" height="20" viewBox="0 0 20 20" fill="none" xmlns="http://www.w3.org/2000/svg">
<path fill-rule="evenodd" clip-rule="evenodd" d="M5.00004 13.3333C5.92052 13.3333 6.66671 14.0795 6.66671 15C6.66671 15.9205 5.92052 16.6667 5.00004 16.6667C4.07957 16.6667 3.33337 15.9205 3.33337 15C3.33337 14.0795 4.07957 13.3333 5.00004 13.3333ZM5.00004 3.33334C5.92052 3.33334 6.66671 4.07953 6.66671 5.00001C6.66671 5.92048 5.92052 6.66667 5.00004 6.66667C4.07957 6.66667 3.33337 5.92048 3.33337 5.00001C3.33337 4.07953 4.07957 3.33334 5.00004 3.33334ZM16.6667 15C16.6667 14.0795 15.9205 13.3333 15 13.3333C14.0796 13.3333 13.3334 14.0795 13.3334 15C13.3334 15.9205 14.0796 16.6667 15 16.6667C15.9205 16.6667 16.6667 15.9205 16.6667 15ZM15 3.33334C15.9205 3.33334 16.6667 4.07953 16.6667 5.00001C16.6667 5.92048 15.9205 6.66667 15 6.66667C14.0796 6.66667 13.3334 5.92048 13.3334 5.00001C13.3334 4.07953 14.0796 3.33334 15 3.33334Z" fill="black" fill-opacity="0.65"/>
</svg>
